<?xml version="1.0" encoding="UTF-8" standalone="no"?><!DOCTYPE svg PUBLIC "-//W3C//DTD SVG 1.1//EN" "http://www.w3.org/Graphics/SVG/1.1/DTD/svg11.dtd"><svg width="100%" height="100%" viewBox="0 0 1000 1000" version="1.1" xmlns="http://www.w3.org/2000/svg" xmlns:xlink="http://www.w3.org/1999/xlink" xml:space="preserve" xmlns:serif="http://www.serif.com/" style="fill-rule:evenodd;clip-rule:evenodd;stroke-linejoin:round;stroke-miterlimit:1.41421;"><rect id="BG" x="0" y="0" width="1000" height="1000"/><path d="M500,93.75l-1.367,0c-108.203,0.391 -209.766,42.773 -286.328,119.336c-76.367,76.758 -118.555,178.516 -118.555,286.914c0,108.398 42.188,210.156 118.75,286.914c76.367,76.563 178.125,118.945 286.328,119.336l1.367,0c224.024,0 406.25,-182.227 406.25,-406.25c0,-224.023 -182.422,-406.25 -406.445,-406.25Zm351.953,378.906l-151.562,0c-1.758,-52.148 -8.203,-101.953 -19.141,-148.828c33.398,-10.742 65.82,-24.414 97.07,-41.015c42.969,55.078 68.36,120.312 73.633,189.843Zm-379.297,0l-120.703,0c1.563,-47.851 7.422,-93.164 17.188,-134.961c33.984,7.618 68.554,12.305 103.515,13.868l0,121.093Zm0,54.688l0,120.898c-34.765,1.563 -69.531,6.25 -103.515,13.867c-9.766,-41.797 -15.625,-87.109 -17.188,-134.765l120.703,0Zm54.688,0l119.726,0c-1.562,47.656 -7.422,92.968 -17.187,134.57c-33.594,-7.617 -67.969,-12.109 -102.539,-13.672l0,-120.898Zm0,-54.688l0,-121.093c34.765,-1.563 69.14,-6.25 102.539,-13.672c9.765,41.797 15.625,86.914 17.187,134.765l-119.726,0Zm213.672,-230.273c-24.024,11.914 -48.829,22.07 -74.219,30.273c-13.867,-41.797 -31.445,-77.929 -51.758,-106.445c46.875,16.211 89.648,42.187 125.977,76.172Zm-125.782,44.336c-28.711,6.25 -58.203,10.156 -87.89,11.719l0,-143.36c33.203,17.969 65.625,66.211 87.89,131.641Zm-142.578,-132.422l0,143.945c-30.078,-1.562 -59.765,-5.469 -88.867,-11.914c22.656,-66.015 55.469,-114.258 88.867,-132.031Zm-89.062,12.5c-20.117,28.32 -37.5,64.258 -51.367,105.664c-25,-8.203 -49.61,-18.359 -73.243,-30.078c35.938,-33.789 78.321,-59.57 124.61,-75.586Zm-161.914,116.211c30.859,16.406 63.086,30.078 96.093,40.625c-11.132,46.68 -17.578,96.68 -19.14,148.828l-150.391,0c5.078,-69.141 30.469,-134.375 73.438,-189.453Zm-73.633,244.336l150.391,0c1.757,52.148 8.203,102.148 19.14,148.828c-33.008,10.742 -65.234,24.414 -96.094,40.625c-42.773,-54.883 -68.164,-120.117 -73.437,-189.453Zm110.742,230.273c23.633,-11.719 48.242,-21.875 73.438,-30.078c13.867,41.602 31.25,77.344 51.367,105.859c-46.289,-16.406 -88.672,-41.992 -124.805,-75.781Zm125,-44.14c29.102,-6.446 58.984,-10.352 88.867,-11.915l0,144.141c-33.594,-17.773 -66.211,-66.211 -88.867,-132.226Zm143.555,131.445l0,-143.555c29.687,1.563 59.179,5.469 87.89,11.719c-22.265,65.625 -54.687,113.867 -87.89,131.836Zm87.89,-11.133c20.313,-28.516 37.891,-64.648 51.758,-106.445c25.391,8.203 50.391,18.554 74.219,30.468c-36.328,33.79 -79.297,59.766 -125.977,75.977Zm163.086,-116.797c-31.25,-16.601 -63.672,-30.273 -97.07,-41.015c10.938,-46.68 17.383,-96.485 19.141,-148.633l151.562,0c-5.273,69.336 -30.469,134.57 -73.633,189.648Z" style="fill:#fff;fill-rule:nonzero;"/></svg>